G04 #@! TF.FileFunction,Copper,L2,Bot,Signal*
%FSLAX46Y46*%
G04 Gerber Fmt 4.6, Leading zero omitted, Abs format (unit mm)*
G04 Created by KiCad (PCBNEW 4.0.0-rc1-stable) date 10/15/2015 12:59:49 AM*
%MOMM*%
G01*
G04 APERTURE LIST*
%ADD10C,0.100000*%
%ADD11C,2.700000*%
%ADD12C,3.300000*%
%ADD13C,6.000000*%
%ADD14C,0.203800*%
G04 APERTURE END LIST*
D10*
D11*
X127845000Y-107632500D03*
X122345000Y-107632500D03*
X127845000Y-111832500D03*
X122345000Y-111832500D03*
X127845000Y-116032500D03*
X122345000Y-116032500D03*
X122345000Y-103432500D03*
X127845000Y-103432500D03*
X122345000Y-99232500D03*
X127845000Y-99232500D03*
D12*
X122805000Y-120732500D03*
X122805000Y-94532500D03*
D11*
X142767500Y-107632500D03*
X137267500Y-107632500D03*
X142767500Y-111832500D03*
X137267500Y-111832500D03*
X142767500Y-116032500D03*
X137267500Y-116032500D03*
X137267500Y-103432500D03*
X142767500Y-103432500D03*
X137267500Y-99232500D03*
X142767500Y-99232500D03*
D12*
X137727500Y-120732500D03*
X137727500Y-94532500D03*
D11*
X157690000Y-107632500D03*
X152190000Y-107632500D03*
X157690000Y-111832500D03*
X152190000Y-111832500D03*
X157690000Y-116032500D03*
X152190000Y-116032500D03*
X152190000Y-103432500D03*
X157690000Y-103432500D03*
X152190000Y-99232500D03*
X157690000Y-99232500D03*
D12*
X152650000Y-120732500D03*
X152650000Y-94532500D03*
D11*
X172612500Y-107632500D03*
X167112500Y-107632500D03*
X172612500Y-111832500D03*
X167112500Y-111832500D03*
X172612500Y-116032500D03*
X167112500Y-116032500D03*
X167112500Y-103432500D03*
X172612500Y-103432500D03*
X167112500Y-99232500D03*
X172612500Y-99232500D03*
D12*
X167572500Y-120732500D03*
X167572500Y-94532500D03*
D13*
X123507500Y-82232500D03*
X133032500Y-82232500D03*
X142557500Y-82232500D03*
X152082500Y-82232500D03*
X161607500Y-82232500D03*
X171132500Y-82232500D03*
D14*
G36*
X126886600Y-79870984D02*
X126886600Y-91122500D01*
X126919400Y-91287398D01*
X127012808Y-91427192D01*
X127152602Y-91520600D01*
X127317500Y-91553400D01*
X129222500Y-91553400D01*
X129387398Y-91520600D01*
X129527192Y-91427192D01*
X129620600Y-91287398D01*
X129653400Y-91122500D01*
X129653400Y-79870984D01*
X130670984Y-78853400D01*
X135394016Y-78853400D01*
X136411600Y-79870984D01*
X136411600Y-91122500D01*
X136444400Y-91287398D01*
X136537808Y-91427192D01*
X136677602Y-91520600D01*
X136842500Y-91553400D01*
X138747500Y-91553400D01*
X138912398Y-91520600D01*
X139052192Y-91427192D01*
X139145600Y-91287398D01*
X139178400Y-91122500D01*
X139178400Y-79870984D01*
X140195984Y-78853400D01*
X144919016Y-78853400D01*
X145936600Y-79870984D01*
X145936600Y-91122500D01*
X145969400Y-91287398D01*
X146062808Y-91427192D01*
X146202602Y-91520600D01*
X146367500Y-91553400D01*
X148170600Y-91553400D01*
X148170600Y-101600000D01*
X148178628Y-101639645D01*
X148201448Y-101673043D01*
X148235464Y-101694931D01*
X148272500Y-101701900D01*
X174511600Y-101701900D01*
X174511600Y-104990600D01*
X144881900Y-104990600D01*
X144881900Y-100965000D01*
X144873872Y-100925355D01*
X144851052Y-100891957D01*
X144817036Y-100870069D01*
X144780000Y-100863100D01*
X118858400Y-100863100D01*
X118858400Y-94929748D01*
X120798752Y-94929748D01*
X121103489Y-95667267D01*
X121667265Y-96232028D01*
X122404251Y-96538051D01*
X123202248Y-96538748D01*
X123939767Y-96234011D01*
X124504528Y-95670235D01*
X124810551Y-94933249D01*
X124810554Y-94929748D01*
X135721252Y-94929748D01*
X136025989Y-95667267D01*
X136589765Y-96232028D01*
X137326751Y-96538051D01*
X138124748Y-96538748D01*
X138862267Y-96234011D01*
X139427028Y-95670235D01*
X139733051Y-94933249D01*
X139733748Y-94135252D01*
X139429011Y-93397733D01*
X138865235Y-92832972D01*
X138128249Y-92526949D01*
X137330252Y-92526252D01*
X136592733Y-92830989D01*
X136027972Y-93394765D01*
X135721949Y-94131751D01*
X135721252Y-94929748D01*
X124810554Y-94929748D01*
X124811248Y-94135252D01*
X124506511Y-93397733D01*
X123942735Y-92832972D01*
X123205749Y-92526949D01*
X122407752Y-92526252D01*
X121670233Y-92830989D01*
X121105472Y-93394765D01*
X120799449Y-94131751D01*
X120798752Y-94929748D01*
X118858400Y-94929748D01*
X118858400Y-91553400D01*
X119697500Y-91553400D01*
X119862398Y-91520600D01*
X120002192Y-91427192D01*
X120095600Y-91287398D01*
X120128400Y-91122500D01*
X120128400Y-79870984D01*
X121145984Y-78853400D01*
X125869016Y-78853400D01*
X126886600Y-79870984D01*
X126886600Y-79870984D01*
G37*
X126886600Y-79870984D02*
X126886600Y-91122500D01*
X126919400Y-91287398D01*
X127012808Y-91427192D01*
X127152602Y-91520600D01*
X127317500Y-91553400D01*
X129222500Y-91553400D01*
X129387398Y-91520600D01*
X129527192Y-91427192D01*
X129620600Y-91287398D01*
X129653400Y-91122500D01*
X129653400Y-79870984D01*
X130670984Y-78853400D01*
X135394016Y-78853400D01*
X136411600Y-79870984D01*
X136411600Y-91122500D01*
X136444400Y-91287398D01*
X136537808Y-91427192D01*
X136677602Y-91520600D01*
X136842500Y-91553400D01*
X138747500Y-91553400D01*
X138912398Y-91520600D01*
X139052192Y-91427192D01*
X139145600Y-91287398D01*
X139178400Y-91122500D01*
X139178400Y-79870984D01*
X140195984Y-78853400D01*
X144919016Y-78853400D01*
X145936600Y-79870984D01*
X145936600Y-91122500D01*
X145969400Y-91287398D01*
X146062808Y-91427192D01*
X146202602Y-91520600D01*
X146367500Y-91553400D01*
X148170600Y-91553400D01*
X148170600Y-101600000D01*
X148178628Y-101639645D01*
X148201448Y-101673043D01*
X148235464Y-101694931D01*
X148272500Y-101701900D01*
X174511600Y-101701900D01*
X174511600Y-104990600D01*
X144881900Y-104990600D01*
X144881900Y-100965000D01*
X144873872Y-100925355D01*
X144851052Y-100891957D01*
X144817036Y-100870069D01*
X144780000Y-100863100D01*
X118858400Y-100863100D01*
X118858400Y-94929748D01*
X120798752Y-94929748D01*
X121103489Y-95667267D01*
X121667265Y-96232028D01*
X122404251Y-96538051D01*
X123202248Y-96538748D01*
X123939767Y-96234011D01*
X124504528Y-95670235D01*
X124810551Y-94933249D01*
X124810554Y-94929748D01*
X135721252Y-94929748D01*
X136025989Y-95667267D01*
X136589765Y-96232028D01*
X137326751Y-96538051D01*
X138124748Y-96538748D01*
X138862267Y-96234011D01*
X139427028Y-95670235D01*
X139733051Y-94933249D01*
X139733748Y-94135252D01*
X139429011Y-93397733D01*
X138865235Y-92832972D01*
X138128249Y-92526949D01*
X137330252Y-92526252D01*
X136592733Y-92830989D01*
X136027972Y-93394765D01*
X135721949Y-94131751D01*
X135721252Y-94929748D01*
X124810554Y-94929748D01*
X124811248Y-94135252D01*
X124506511Y-93397733D01*
X123942735Y-92832972D01*
X123205749Y-92526949D01*
X122407752Y-92526252D01*
X121670233Y-92830989D01*
X121105472Y-93394765D01*
X120799449Y-94131751D01*
X120798752Y-94929748D01*
X118858400Y-94929748D01*
X118858400Y-91553400D01*
X119697500Y-91553400D01*
X119862398Y-91520600D01*
X120002192Y-91427192D01*
X120095600Y-91287398D01*
X120128400Y-91122500D01*
X120128400Y-79870984D01*
X121145984Y-78853400D01*
X125869016Y-78853400D01*
X126886600Y-79870984D01*
G36*
X144043100Y-104990600D02*
X120434400Y-104990600D01*
X120434400Y-101701900D01*
X144043100Y-101701900D01*
X144043100Y-104990600D01*
X144043100Y-104990600D01*
G37*
X144043100Y-104990600D02*
X120434400Y-104990600D01*
X120434400Y-101701900D01*
X144043100Y-101701900D01*
X144043100Y-104990600D01*
G36*
X174511600Y-100863100D02*
X150279400Y-100863100D01*
X150279400Y-97256900D01*
X174511600Y-97256900D01*
X174511600Y-100863100D01*
X174511600Y-100863100D01*
G37*
X174511600Y-100863100D02*
X150279400Y-100863100D01*
X150279400Y-97256900D01*
X174511600Y-97256900D01*
X174511600Y-100863100D01*
M02*
