M48
INCH,TZ
T1C0.071
T2C0.118
T3C0.138
T4C0.154
%
G90
G05
T1
X48167Y-39068
X48167Y-40721
X48167Y-42375
X48167Y-44029
X48167Y-45682
X50333Y-39068
X50333Y-40721
X50333Y-42375
X50333Y-44029
X50333Y-45682
X54042Y-39068
X54042Y-40721
X54042Y-42375
X54042Y-44029
X54042Y-45682
X56208Y-39068
X56208Y-40721
X56208Y-42375
X56208Y-44029
X56208Y-45682
X59917Y-39068
X59917Y-40721
X59917Y-42375
X59917Y-44029
X59917Y-45682
X62083Y-39068
X62083Y-40721
X62083Y-42375
X62083Y-44029
X62083Y-45682
X65792Y-39068
X65792Y-40721
X65792Y-42375
X65792Y-44029
X65792Y-45682
X67958Y-39068
X67958Y-40721
X67958Y-42375
X67958Y-44029
X67958Y-45682
T2
X48348Y-37218
X48348Y-47532
X54223Y-37218
X54223Y-47532
X60098Y-37218
X60098Y-47532
X65973Y-37218
X65973Y-47532
T3
X51625Y-48750
X63875Y-48750
T4
X48625Y-32375
X52375Y-32375
X56125Y-32375
X59875Y-32375
X63625Y-32375
X67375Y-32375
T0
M30
