G04 #@! TF.FileFunction,Copper,L1,Top,Signal*
%FSLAX46Y46*%
G04 Gerber Fmt 4.6, Leading zero omitted, Abs format (unit mm)*
G04 Created by KiCad (PCBNEW 4.0.0-rc1-stable) date 10/15/2015 12:59:49 AM*
%MOMM*%
G01*
G04 APERTURE LIST*
%ADD10C,0.100000*%
%ADD11C,2.700000*%
%ADD12C,3.300000*%
%ADD13C,6.000000*%
%ADD14C,0.250000*%
%ADD15C,0.203800*%
G04 APERTURE END LIST*
D10*
D11*
X127845000Y-107632500D03*
X122345000Y-107632500D03*
X127845000Y-111832500D03*
X122345000Y-111832500D03*
X127845000Y-116032500D03*
X122345000Y-116032500D03*
X122345000Y-103432500D03*
X127845000Y-103432500D03*
X122345000Y-99232500D03*
X127845000Y-99232500D03*
D12*
X122805000Y-120732500D03*
X122805000Y-94532500D03*
D11*
X142767500Y-107632500D03*
X137267500Y-107632500D03*
X142767500Y-111832500D03*
X137267500Y-111832500D03*
X142767500Y-116032500D03*
X137267500Y-116032500D03*
X137267500Y-103432500D03*
X142767500Y-103432500D03*
X137267500Y-99232500D03*
X142767500Y-99232500D03*
D12*
X137727500Y-120732500D03*
X137727500Y-94532500D03*
D11*
X157690000Y-107632500D03*
X152190000Y-107632500D03*
X157690000Y-111832500D03*
X152190000Y-111832500D03*
X157690000Y-116032500D03*
X152190000Y-116032500D03*
X152190000Y-103432500D03*
X157690000Y-103432500D03*
X152190000Y-99232500D03*
X157690000Y-99232500D03*
D12*
X152650000Y-120732500D03*
X152650000Y-94532500D03*
D11*
X172612500Y-107632500D03*
X167112500Y-107632500D03*
X172612500Y-111832500D03*
X167112500Y-111832500D03*
X172612500Y-116032500D03*
X167112500Y-116032500D03*
X167112500Y-103432500D03*
X172612500Y-103432500D03*
X167112500Y-99232500D03*
X172612500Y-99232500D03*
D12*
X167572500Y-120732500D03*
X167572500Y-94532500D03*
D13*
X123507500Y-82232500D03*
X133032500Y-82232500D03*
X142557500Y-82232500D03*
X152082500Y-82232500D03*
X161607500Y-82232500D03*
X171132500Y-82232500D03*
D14*
X189972500Y-152862500D02*
X189972500Y-153142500D01*
X127845000Y-116032500D02*
X127845000Y-115995000D01*
X127845000Y-115995000D02*
X129857500Y-113982500D01*
X129857500Y-113982500D02*
X140717500Y-113982500D01*
X140717500Y-113982500D02*
X142767500Y-116032500D01*
X137267500Y-116032500D02*
X137267500Y-116097500D01*
X137267500Y-116097500D02*
X135255000Y-118110000D01*
X135255000Y-118110000D02*
X124422500Y-118110000D01*
X124422500Y-118110000D02*
X122345000Y-116032500D01*
X157690000Y-116032500D02*
X157690000Y-115995000D01*
X157690000Y-115995000D02*
X159702500Y-113982500D01*
X159702500Y-113982500D02*
X170562500Y-113982500D01*
X170562500Y-113982500D02*
X172612500Y-116032500D01*
X167112500Y-116032500D02*
X167112500Y-116097500D01*
X167112500Y-116097500D02*
X165100000Y-118110000D01*
X165100000Y-118110000D02*
X154267500Y-118110000D01*
X154267500Y-118110000D02*
X152190000Y-116032500D01*
X152190000Y-116032500D02*
X152255000Y-116032500D01*
D15*
G36*
X155461600Y-79870984D02*
X155461600Y-91122500D01*
X155494400Y-91287398D01*
X155587808Y-91427192D01*
X155727602Y-91520600D01*
X155892500Y-91553400D01*
X157797500Y-91553400D01*
X157962398Y-91520600D01*
X158102192Y-91427192D01*
X158195600Y-91287398D01*
X158228400Y-91122500D01*
X158228400Y-79870984D01*
X159245984Y-78853400D01*
X163969016Y-78853400D01*
X164986600Y-79870984D01*
X164986600Y-91122500D01*
X165019400Y-91287398D01*
X165112808Y-91427192D01*
X165252602Y-91520600D01*
X165417500Y-91553400D01*
X167322500Y-91553400D01*
X167487398Y-91520600D01*
X167627192Y-91427192D01*
X167720600Y-91287398D01*
X167753400Y-91122500D01*
X167753400Y-79870984D01*
X168770984Y-78853400D01*
X173494016Y-78853400D01*
X174511600Y-79870984D01*
X174511600Y-127839100D01*
X118858400Y-127839100D01*
X118858400Y-124242052D01*
X129021235Y-124242052D01*
X129341164Y-125016338D01*
X129933046Y-125609254D01*
X130706773Y-125930534D01*
X131544552Y-125931265D01*
X132318838Y-125611336D01*
X132911754Y-125019454D01*
X133233034Y-124245727D01*
X133233037Y-124242052D01*
X160136235Y-124242052D01*
X160456164Y-125016338D01*
X161048046Y-125609254D01*
X161821773Y-125930534D01*
X162659552Y-125931265D01*
X163433838Y-125611336D01*
X164026754Y-125019454D01*
X164348034Y-124245727D01*
X164348765Y-123407948D01*
X164028836Y-122633662D01*
X163436954Y-122040746D01*
X162663227Y-121719466D01*
X161825448Y-121718735D01*
X161051162Y-122038664D01*
X160458246Y-122630546D01*
X160136966Y-123404273D01*
X160136235Y-124242052D01*
X133233037Y-124242052D01*
X133233765Y-123407948D01*
X132913836Y-122633662D01*
X132321954Y-122040746D01*
X131548227Y-121719466D01*
X130710448Y-121718735D01*
X129936162Y-122038664D01*
X129343246Y-122630546D01*
X129021966Y-123404273D01*
X129021235Y-124242052D01*
X118858400Y-124242052D01*
X118858400Y-121129748D01*
X120798752Y-121129748D01*
X121103489Y-121867267D01*
X121667265Y-122432028D01*
X122404251Y-122738051D01*
X123202248Y-122738748D01*
X123939767Y-122434011D01*
X124504528Y-121870235D01*
X124810551Y-121133249D01*
X124810554Y-121129748D01*
X135721252Y-121129748D01*
X136025989Y-121867267D01*
X136589765Y-122432028D01*
X137326751Y-122738051D01*
X138124748Y-122738748D01*
X138862267Y-122434011D01*
X139427028Y-121870235D01*
X139733051Y-121133249D01*
X139733054Y-121129748D01*
X150643752Y-121129748D01*
X150948489Y-121867267D01*
X151512265Y-122432028D01*
X152249251Y-122738051D01*
X153047248Y-122738748D01*
X153784767Y-122434011D01*
X154349528Y-121870235D01*
X154655551Y-121133249D01*
X154655554Y-121129748D01*
X165566252Y-121129748D01*
X165870989Y-121867267D01*
X166434765Y-122432028D01*
X167171751Y-122738051D01*
X167969748Y-122738748D01*
X168707267Y-122434011D01*
X169272028Y-121870235D01*
X169578051Y-121133249D01*
X169578748Y-120335252D01*
X169274011Y-119597733D01*
X168710235Y-119032972D01*
X167973249Y-118726949D01*
X167175252Y-118726252D01*
X166437733Y-119030989D01*
X165872972Y-119594765D01*
X165566949Y-120331751D01*
X165566252Y-121129748D01*
X154655554Y-121129748D01*
X154656248Y-120335252D01*
X154351511Y-119597733D01*
X153787735Y-119032972D01*
X153050749Y-118726949D01*
X152252752Y-118726252D01*
X151515233Y-119030989D01*
X150950472Y-119594765D01*
X150644449Y-120331751D01*
X150643752Y-121129748D01*
X139733054Y-121129748D01*
X139733748Y-120335252D01*
X139429011Y-119597733D01*
X138865235Y-119032972D01*
X138128249Y-118726949D01*
X137330252Y-118726252D01*
X136592733Y-119030989D01*
X136027972Y-119594765D01*
X135721949Y-120331751D01*
X135721252Y-121129748D01*
X124810554Y-121129748D01*
X124811248Y-120335252D01*
X124506511Y-119597733D01*
X123942735Y-119032972D01*
X123205749Y-118726949D01*
X122407752Y-118726252D01*
X121670233Y-119030989D01*
X121105472Y-119594765D01*
X120799449Y-120331751D01*
X120798752Y-121129748D01*
X118858400Y-121129748D01*
X118858400Y-116370336D01*
X120638804Y-116370336D01*
X120897965Y-116997553D01*
X121377423Y-117477849D01*
X122004187Y-117738104D01*
X122682836Y-117738696D01*
X123169864Y-117537460D01*
X124082450Y-118450045D01*
X124082452Y-118450048D01*
X124160460Y-118502171D01*
X124238467Y-118554294D01*
X124422500Y-118590901D01*
X124422505Y-118590900D01*
X135255000Y-118590900D01*
X135439033Y-118554294D01*
X135595048Y-118450048D01*
X136488813Y-117556283D01*
X136926687Y-117738104D01*
X137605336Y-117738696D01*
X138232553Y-117479535D01*
X138712849Y-117000077D01*
X138973104Y-116373313D01*
X138973696Y-115694664D01*
X138714535Y-115067447D01*
X138235077Y-114587151D01*
X137937051Y-114463400D01*
X140518304Y-114463400D01*
X141262788Y-115207884D01*
X141061896Y-115691687D01*
X141061304Y-116370336D01*
X141320465Y-116997553D01*
X141799923Y-117477849D01*
X142426687Y-117738104D01*
X143105336Y-117738696D01*
X143732553Y-117479535D01*
X144212849Y-117000077D01*
X144473104Y-116373313D01*
X144473106Y-116370336D01*
X150483804Y-116370336D01*
X150742965Y-116997553D01*
X151222423Y-117477849D01*
X151849187Y-117738104D01*
X152527836Y-117738696D01*
X153014864Y-117537460D01*
X153927450Y-118450045D01*
X153927452Y-118450048D01*
X154005460Y-118502171D01*
X154083467Y-118554294D01*
X154267500Y-118590901D01*
X154267505Y-118590900D01*
X165100000Y-118590900D01*
X165284033Y-118554294D01*
X165440048Y-118450048D01*
X166333813Y-117556283D01*
X166771687Y-117738104D01*
X167450336Y-117738696D01*
X168077553Y-117479535D01*
X168557849Y-117000077D01*
X168818104Y-116373313D01*
X168818696Y-115694664D01*
X168559535Y-115067447D01*
X168080077Y-114587151D01*
X167782051Y-114463400D01*
X170363304Y-114463400D01*
X171107788Y-115207884D01*
X170906896Y-115691687D01*
X170906304Y-116370336D01*
X171165465Y-116997553D01*
X171644923Y-117477849D01*
X172271687Y-117738104D01*
X172950336Y-117738696D01*
X173577553Y-117479535D01*
X174057849Y-117000077D01*
X174318104Y-116373313D01*
X174318696Y-115694664D01*
X174059535Y-115067447D01*
X173580077Y-114587151D01*
X172953313Y-114326896D01*
X172274664Y-114326304D01*
X171787636Y-114527540D01*
X170902548Y-113642452D01*
X170746533Y-113538206D01*
X170562500Y-113501600D01*
X159702505Y-113501600D01*
X159702500Y-113501599D01*
X159518467Y-113538206D01*
X159362452Y-113642452D01*
X158488118Y-114516786D01*
X158030813Y-114326896D01*
X157352164Y-114326304D01*
X156724947Y-114585465D01*
X156244651Y-115064923D01*
X155984396Y-115691687D01*
X155983804Y-116370336D01*
X156242965Y-116997553D01*
X156722423Y-117477849D01*
X157086676Y-117629100D01*
X154466695Y-117629100D01*
X153694712Y-116857116D01*
X153895604Y-116373313D01*
X153896196Y-115694664D01*
X153637035Y-115067447D01*
X153157577Y-114587151D01*
X152530813Y-114326896D01*
X151852164Y-114326304D01*
X151224947Y-114585465D01*
X150744651Y-115064923D01*
X150484396Y-115691687D01*
X150483804Y-116370336D01*
X144473106Y-116370336D01*
X144473696Y-115694664D01*
X144214535Y-115067447D01*
X143735077Y-114587151D01*
X143108313Y-114326896D01*
X142429664Y-114326304D01*
X141942636Y-114527540D01*
X141057548Y-113642452D01*
X140901533Y-113538206D01*
X140717500Y-113501600D01*
X129857505Y-113501600D01*
X129857500Y-113501599D01*
X129673467Y-113538206D01*
X129517452Y-113642452D01*
X128643118Y-114516786D01*
X128185813Y-114326896D01*
X127507164Y-114326304D01*
X126879947Y-114585465D01*
X126399651Y-115064923D01*
X126139396Y-115691687D01*
X126138804Y-116370336D01*
X126397965Y-116997553D01*
X126877423Y-117477849D01*
X127241676Y-117629100D01*
X124621695Y-117629100D01*
X123849712Y-116857116D01*
X124050604Y-116373313D01*
X124051196Y-115694664D01*
X123792035Y-115067447D01*
X123312577Y-114587151D01*
X122685813Y-114326896D01*
X122007164Y-114326304D01*
X121379947Y-114585465D01*
X120899651Y-115064923D01*
X120639396Y-115691687D01*
X120638804Y-116370336D01*
X118858400Y-116370336D01*
X118858400Y-105511900D01*
X147320000Y-105511900D01*
X147359645Y-105503872D01*
X147393043Y-105481052D01*
X147414931Y-105447036D01*
X147421900Y-105410000D01*
X147421900Y-103770336D01*
X150483804Y-103770336D01*
X150742965Y-104397553D01*
X151222423Y-104877849D01*
X151849187Y-105138104D01*
X152527836Y-105138696D01*
X153155053Y-104879535D01*
X153635349Y-104400077D01*
X153895604Y-103773313D01*
X153895606Y-103770336D01*
X155983804Y-103770336D01*
X156242965Y-104397553D01*
X156722423Y-104877849D01*
X157349187Y-105138104D01*
X158027836Y-105138696D01*
X158655053Y-104879535D01*
X159135349Y-104400077D01*
X159395604Y-103773313D01*
X159395606Y-103770336D01*
X165406304Y-103770336D01*
X165665465Y-104397553D01*
X166144923Y-104877849D01*
X166771687Y-105138104D01*
X167450336Y-105138696D01*
X168077553Y-104879535D01*
X168557849Y-104400077D01*
X168818104Y-103773313D01*
X168818106Y-103770336D01*
X170906304Y-103770336D01*
X171165465Y-104397553D01*
X171644923Y-104877849D01*
X172271687Y-105138104D01*
X172950336Y-105138696D01*
X173577553Y-104879535D01*
X174057849Y-104400077D01*
X174318104Y-103773313D01*
X174318696Y-103094664D01*
X174059535Y-102467447D01*
X173580077Y-101987151D01*
X172953313Y-101726896D01*
X172274664Y-101726304D01*
X171647447Y-101985465D01*
X171167151Y-102464923D01*
X170906896Y-103091687D01*
X170906304Y-103770336D01*
X168818106Y-103770336D01*
X168818696Y-103094664D01*
X168559535Y-102467447D01*
X168080077Y-101987151D01*
X167453313Y-101726896D01*
X166774664Y-101726304D01*
X166147447Y-101985465D01*
X165667151Y-102464923D01*
X165406896Y-103091687D01*
X165406304Y-103770336D01*
X159395606Y-103770336D01*
X159396196Y-103094664D01*
X159137035Y-102467447D01*
X158657577Y-101987151D01*
X158030813Y-101726896D01*
X157352164Y-101726304D01*
X156724947Y-101985465D01*
X156244651Y-102464923D01*
X155984396Y-103091687D01*
X155983804Y-103770336D01*
X153895606Y-103770336D01*
X153896196Y-103094664D01*
X153637035Y-102467447D01*
X153157577Y-101987151D01*
X152530813Y-101726896D01*
X151852164Y-101726304D01*
X151224947Y-101985465D01*
X150744651Y-102464923D01*
X150484396Y-103091687D01*
X150483804Y-103770336D01*
X147421900Y-103770336D01*
X147421900Y-99570336D01*
X150483804Y-99570336D01*
X150742965Y-100197553D01*
X151222423Y-100677849D01*
X151849187Y-100938104D01*
X152527836Y-100938696D01*
X153155053Y-100679535D01*
X153635349Y-100200077D01*
X153895604Y-99573313D01*
X153895606Y-99570336D01*
X155983804Y-99570336D01*
X156242965Y-100197553D01*
X156722423Y-100677849D01*
X157349187Y-100938104D01*
X158027836Y-100938696D01*
X158655053Y-100679535D01*
X159135349Y-100200077D01*
X159395604Y-99573313D01*
X159395606Y-99570336D01*
X165406304Y-99570336D01*
X165665465Y-100197553D01*
X166144923Y-100677849D01*
X166771687Y-100938104D01*
X167450336Y-100938696D01*
X168077553Y-100679535D01*
X168557849Y-100200077D01*
X168818104Y-99573313D01*
X168818106Y-99570336D01*
X170906304Y-99570336D01*
X171165465Y-100197553D01*
X171644923Y-100677849D01*
X172271687Y-100938104D01*
X172950336Y-100938696D01*
X173577553Y-100679535D01*
X174057849Y-100200077D01*
X174318104Y-99573313D01*
X174318696Y-98894664D01*
X174059535Y-98267447D01*
X173580077Y-97787151D01*
X172953313Y-97526896D01*
X172274664Y-97526304D01*
X171647447Y-97785465D01*
X171167151Y-98264923D01*
X170906896Y-98891687D01*
X170906304Y-99570336D01*
X168818106Y-99570336D01*
X168818696Y-98894664D01*
X168559535Y-98267447D01*
X168080077Y-97787151D01*
X167453313Y-97526896D01*
X166774664Y-97526304D01*
X166147447Y-97785465D01*
X165667151Y-98264923D01*
X165406896Y-98891687D01*
X165406304Y-99570336D01*
X159395606Y-99570336D01*
X159396196Y-98894664D01*
X159137035Y-98267447D01*
X158657577Y-97787151D01*
X158030813Y-97526896D01*
X157352164Y-97526304D01*
X156724947Y-97785465D01*
X156244651Y-98264923D01*
X155984396Y-98891687D01*
X155983804Y-99570336D01*
X153895606Y-99570336D01*
X153896196Y-98894664D01*
X153637035Y-98267447D01*
X153157577Y-97787151D01*
X152530813Y-97526896D01*
X151852164Y-97526304D01*
X151224947Y-97785465D01*
X150744651Y-98264923D01*
X150484396Y-98891687D01*
X150483804Y-99570336D01*
X147421900Y-99570336D01*
X147421900Y-94929748D01*
X150643752Y-94929748D01*
X150948489Y-95667267D01*
X151512265Y-96232028D01*
X152249251Y-96538051D01*
X153047248Y-96538748D01*
X153784767Y-96234011D01*
X154349528Y-95670235D01*
X154655551Y-94933249D01*
X154655554Y-94929748D01*
X165566252Y-94929748D01*
X165870989Y-95667267D01*
X166434765Y-96232028D01*
X167171751Y-96538051D01*
X167969748Y-96538748D01*
X168707267Y-96234011D01*
X169272028Y-95670235D01*
X169578051Y-94933249D01*
X169578748Y-94135252D01*
X169274011Y-93397733D01*
X168710235Y-92832972D01*
X167973249Y-92526949D01*
X167175252Y-92526252D01*
X166437733Y-92830989D01*
X165872972Y-93394765D01*
X165566949Y-94131751D01*
X165566252Y-94929748D01*
X154655554Y-94929748D01*
X154656248Y-94135252D01*
X154351511Y-93397733D01*
X153787735Y-92832972D01*
X153050749Y-92526949D01*
X152252752Y-92526252D01*
X151515233Y-92830989D01*
X150950472Y-93394765D01*
X150644449Y-94131751D01*
X150643752Y-94929748D01*
X147421900Y-94929748D01*
X147421900Y-91553400D01*
X148272500Y-91553400D01*
X148437398Y-91520600D01*
X148577192Y-91427192D01*
X148670600Y-91287398D01*
X148703400Y-91122500D01*
X148703400Y-79870984D01*
X149720984Y-78853400D01*
X154444016Y-78853400D01*
X155461600Y-79870984D01*
X155461600Y-79870984D01*
G37*
X155461600Y-79870984D02*
X155461600Y-91122500D01*
X155494400Y-91287398D01*
X155587808Y-91427192D01*
X155727602Y-91520600D01*
X155892500Y-91553400D01*
X157797500Y-91553400D01*
X157962398Y-91520600D01*
X158102192Y-91427192D01*
X158195600Y-91287398D01*
X158228400Y-91122500D01*
X158228400Y-79870984D01*
X159245984Y-78853400D01*
X163969016Y-78853400D01*
X164986600Y-79870984D01*
X164986600Y-91122500D01*
X165019400Y-91287398D01*
X165112808Y-91427192D01*
X165252602Y-91520600D01*
X165417500Y-91553400D01*
X167322500Y-91553400D01*
X167487398Y-91520600D01*
X167627192Y-91427192D01*
X167720600Y-91287398D01*
X167753400Y-91122500D01*
X167753400Y-79870984D01*
X168770984Y-78853400D01*
X173494016Y-78853400D01*
X174511600Y-79870984D01*
X174511600Y-127839100D01*
X118858400Y-127839100D01*
X118858400Y-124242052D01*
X129021235Y-124242052D01*
X129341164Y-125016338D01*
X129933046Y-125609254D01*
X130706773Y-125930534D01*
X131544552Y-125931265D01*
X132318838Y-125611336D01*
X132911754Y-125019454D01*
X133233034Y-124245727D01*
X133233037Y-124242052D01*
X160136235Y-124242052D01*
X160456164Y-125016338D01*
X161048046Y-125609254D01*
X161821773Y-125930534D01*
X162659552Y-125931265D01*
X163433838Y-125611336D01*
X164026754Y-125019454D01*
X164348034Y-124245727D01*
X164348765Y-123407948D01*
X164028836Y-122633662D01*
X163436954Y-122040746D01*
X162663227Y-121719466D01*
X161825448Y-121718735D01*
X161051162Y-122038664D01*
X160458246Y-122630546D01*
X160136966Y-123404273D01*
X160136235Y-124242052D01*
X133233037Y-124242052D01*
X133233765Y-123407948D01*
X132913836Y-122633662D01*
X132321954Y-122040746D01*
X131548227Y-121719466D01*
X130710448Y-121718735D01*
X129936162Y-122038664D01*
X129343246Y-122630546D01*
X129021966Y-123404273D01*
X129021235Y-124242052D01*
X118858400Y-124242052D01*
X118858400Y-121129748D01*
X120798752Y-121129748D01*
X121103489Y-121867267D01*
X121667265Y-122432028D01*
X122404251Y-122738051D01*
X123202248Y-122738748D01*
X123939767Y-122434011D01*
X124504528Y-121870235D01*
X124810551Y-121133249D01*
X124810554Y-121129748D01*
X135721252Y-121129748D01*
X136025989Y-121867267D01*
X136589765Y-122432028D01*
X137326751Y-122738051D01*
X138124748Y-122738748D01*
X138862267Y-122434011D01*
X139427028Y-121870235D01*
X139733051Y-121133249D01*
X139733054Y-121129748D01*
X150643752Y-121129748D01*
X150948489Y-121867267D01*
X151512265Y-122432028D01*
X152249251Y-122738051D01*
X153047248Y-122738748D01*
X153784767Y-122434011D01*
X154349528Y-121870235D01*
X154655551Y-121133249D01*
X154655554Y-121129748D01*
X165566252Y-121129748D01*
X165870989Y-121867267D01*
X166434765Y-122432028D01*
X167171751Y-122738051D01*
X167969748Y-122738748D01*
X168707267Y-122434011D01*
X169272028Y-121870235D01*
X169578051Y-121133249D01*
X169578748Y-120335252D01*
X169274011Y-119597733D01*
X168710235Y-119032972D01*
X167973249Y-118726949D01*
X167175252Y-118726252D01*
X166437733Y-119030989D01*
X165872972Y-119594765D01*
X165566949Y-120331751D01*
X165566252Y-121129748D01*
X154655554Y-121129748D01*
X154656248Y-120335252D01*
X154351511Y-119597733D01*
X153787735Y-119032972D01*
X153050749Y-118726949D01*
X152252752Y-118726252D01*
X151515233Y-119030989D01*
X150950472Y-119594765D01*
X150644449Y-120331751D01*
X150643752Y-121129748D01*
X139733054Y-121129748D01*
X139733748Y-120335252D01*
X139429011Y-119597733D01*
X138865235Y-119032972D01*
X138128249Y-118726949D01*
X137330252Y-118726252D01*
X136592733Y-119030989D01*
X136027972Y-119594765D01*
X135721949Y-120331751D01*
X135721252Y-121129748D01*
X124810554Y-121129748D01*
X124811248Y-120335252D01*
X124506511Y-119597733D01*
X123942735Y-119032972D01*
X123205749Y-118726949D01*
X122407752Y-118726252D01*
X121670233Y-119030989D01*
X121105472Y-119594765D01*
X120799449Y-120331751D01*
X120798752Y-121129748D01*
X118858400Y-121129748D01*
X118858400Y-116370336D01*
X120638804Y-116370336D01*
X120897965Y-116997553D01*
X121377423Y-117477849D01*
X122004187Y-117738104D01*
X122682836Y-117738696D01*
X123169864Y-117537460D01*
X124082450Y-118450045D01*
X124082452Y-118450048D01*
X124160460Y-118502171D01*
X124238467Y-118554294D01*
X124422500Y-118590901D01*
X124422505Y-118590900D01*
X135255000Y-118590900D01*
X135439033Y-118554294D01*
X135595048Y-118450048D01*
X136488813Y-117556283D01*
X136926687Y-117738104D01*
X137605336Y-117738696D01*
X138232553Y-117479535D01*
X138712849Y-117000077D01*
X138973104Y-116373313D01*
X138973696Y-115694664D01*
X138714535Y-115067447D01*
X138235077Y-114587151D01*
X137937051Y-114463400D01*
X140518304Y-114463400D01*
X141262788Y-115207884D01*
X141061896Y-115691687D01*
X141061304Y-116370336D01*
X141320465Y-116997553D01*
X141799923Y-117477849D01*
X142426687Y-117738104D01*
X143105336Y-117738696D01*
X143732553Y-117479535D01*
X144212849Y-117000077D01*
X144473104Y-116373313D01*
X144473106Y-116370336D01*
X150483804Y-116370336D01*
X150742965Y-116997553D01*
X151222423Y-117477849D01*
X151849187Y-117738104D01*
X152527836Y-117738696D01*
X153014864Y-117537460D01*
X153927450Y-118450045D01*
X153927452Y-118450048D01*
X154005460Y-118502171D01*
X154083467Y-118554294D01*
X154267500Y-118590901D01*
X154267505Y-118590900D01*
X165100000Y-118590900D01*
X165284033Y-118554294D01*
X165440048Y-118450048D01*
X166333813Y-117556283D01*
X166771687Y-117738104D01*
X167450336Y-117738696D01*
X168077553Y-117479535D01*
X168557849Y-117000077D01*
X168818104Y-116373313D01*
X168818696Y-115694664D01*
X168559535Y-115067447D01*
X168080077Y-114587151D01*
X167782051Y-114463400D01*
X170363304Y-114463400D01*
X171107788Y-115207884D01*
X170906896Y-115691687D01*
X170906304Y-116370336D01*
X171165465Y-116997553D01*
X171644923Y-117477849D01*
X172271687Y-117738104D01*
X172950336Y-117738696D01*
X173577553Y-117479535D01*
X174057849Y-117000077D01*
X174318104Y-116373313D01*
X174318696Y-115694664D01*
X174059535Y-115067447D01*
X173580077Y-114587151D01*
X172953313Y-114326896D01*
X172274664Y-114326304D01*
X171787636Y-114527540D01*
X170902548Y-113642452D01*
X170746533Y-113538206D01*
X170562500Y-113501600D01*
X159702505Y-113501600D01*
X159702500Y-113501599D01*
X159518467Y-113538206D01*
X159362452Y-113642452D01*
X158488118Y-114516786D01*
X158030813Y-114326896D01*
X157352164Y-114326304D01*
X156724947Y-114585465D01*
X156244651Y-115064923D01*
X155984396Y-115691687D01*
X155983804Y-116370336D01*
X156242965Y-116997553D01*
X156722423Y-117477849D01*
X157086676Y-117629100D01*
X154466695Y-117629100D01*
X153694712Y-116857116D01*
X153895604Y-116373313D01*
X153896196Y-115694664D01*
X153637035Y-115067447D01*
X153157577Y-114587151D01*
X152530813Y-114326896D01*
X151852164Y-114326304D01*
X151224947Y-114585465D01*
X150744651Y-115064923D01*
X150484396Y-115691687D01*
X150483804Y-116370336D01*
X144473106Y-116370336D01*
X144473696Y-115694664D01*
X144214535Y-115067447D01*
X143735077Y-114587151D01*
X143108313Y-114326896D01*
X142429664Y-114326304D01*
X141942636Y-114527540D01*
X141057548Y-113642452D01*
X140901533Y-113538206D01*
X140717500Y-113501600D01*
X129857505Y-113501600D01*
X129857500Y-113501599D01*
X129673467Y-113538206D01*
X129517452Y-113642452D01*
X128643118Y-114516786D01*
X128185813Y-114326896D01*
X127507164Y-114326304D01*
X126879947Y-114585465D01*
X126399651Y-115064923D01*
X126139396Y-115691687D01*
X126138804Y-116370336D01*
X126397965Y-116997553D01*
X126877423Y-117477849D01*
X127241676Y-117629100D01*
X124621695Y-117629100D01*
X123849712Y-116857116D01*
X124050604Y-116373313D01*
X124051196Y-115694664D01*
X123792035Y-115067447D01*
X123312577Y-114587151D01*
X122685813Y-114326896D01*
X122007164Y-114326304D01*
X121379947Y-114585465D01*
X120899651Y-115064923D01*
X120639396Y-115691687D01*
X120638804Y-116370336D01*
X118858400Y-116370336D01*
X118858400Y-105511900D01*
X147320000Y-105511900D01*
X147359645Y-105503872D01*
X147393043Y-105481052D01*
X147414931Y-105447036D01*
X147421900Y-105410000D01*
X147421900Y-103770336D01*
X150483804Y-103770336D01*
X150742965Y-104397553D01*
X151222423Y-104877849D01*
X151849187Y-105138104D01*
X152527836Y-105138696D01*
X153155053Y-104879535D01*
X153635349Y-104400077D01*
X153895604Y-103773313D01*
X153895606Y-103770336D01*
X155983804Y-103770336D01*
X156242965Y-104397553D01*
X156722423Y-104877849D01*
X157349187Y-105138104D01*
X158027836Y-105138696D01*
X158655053Y-104879535D01*
X159135349Y-104400077D01*
X159395604Y-103773313D01*
X159395606Y-103770336D01*
X165406304Y-103770336D01*
X165665465Y-104397553D01*
X166144923Y-104877849D01*
X166771687Y-105138104D01*
X167450336Y-105138696D01*
X168077553Y-104879535D01*
X168557849Y-104400077D01*
X168818104Y-103773313D01*
X168818106Y-103770336D01*
X170906304Y-103770336D01*
X171165465Y-104397553D01*
X171644923Y-104877849D01*
X172271687Y-105138104D01*
X172950336Y-105138696D01*
X173577553Y-104879535D01*
X174057849Y-104400077D01*
X174318104Y-103773313D01*
X174318696Y-103094664D01*
X174059535Y-102467447D01*
X173580077Y-101987151D01*
X172953313Y-101726896D01*
X172274664Y-101726304D01*
X171647447Y-101985465D01*
X171167151Y-102464923D01*
X170906896Y-103091687D01*
X170906304Y-103770336D01*
X168818106Y-103770336D01*
X168818696Y-103094664D01*
X168559535Y-102467447D01*
X168080077Y-101987151D01*
X167453313Y-101726896D01*
X166774664Y-101726304D01*
X166147447Y-101985465D01*
X165667151Y-102464923D01*
X165406896Y-103091687D01*
X165406304Y-103770336D01*
X159395606Y-103770336D01*
X159396196Y-103094664D01*
X159137035Y-102467447D01*
X158657577Y-101987151D01*
X158030813Y-101726896D01*
X157352164Y-101726304D01*
X156724947Y-101985465D01*
X156244651Y-102464923D01*
X155984396Y-103091687D01*
X155983804Y-103770336D01*
X153895606Y-103770336D01*
X153896196Y-103094664D01*
X153637035Y-102467447D01*
X153157577Y-101987151D01*
X152530813Y-101726896D01*
X151852164Y-101726304D01*
X151224947Y-101985465D01*
X150744651Y-102464923D01*
X150484396Y-103091687D01*
X150483804Y-103770336D01*
X147421900Y-103770336D01*
X147421900Y-99570336D01*
X150483804Y-99570336D01*
X150742965Y-100197553D01*
X151222423Y-100677849D01*
X151849187Y-100938104D01*
X152527836Y-100938696D01*
X153155053Y-100679535D01*
X153635349Y-100200077D01*
X153895604Y-99573313D01*
X153895606Y-99570336D01*
X155983804Y-99570336D01*
X156242965Y-100197553D01*
X156722423Y-100677849D01*
X157349187Y-100938104D01*
X158027836Y-100938696D01*
X158655053Y-100679535D01*
X159135349Y-100200077D01*
X159395604Y-99573313D01*
X159395606Y-99570336D01*
X165406304Y-99570336D01*
X165665465Y-100197553D01*
X166144923Y-100677849D01*
X166771687Y-100938104D01*
X167450336Y-100938696D01*
X168077553Y-100679535D01*
X168557849Y-100200077D01*
X168818104Y-99573313D01*
X168818106Y-99570336D01*
X170906304Y-99570336D01*
X171165465Y-100197553D01*
X171644923Y-100677849D01*
X172271687Y-100938104D01*
X172950336Y-100938696D01*
X173577553Y-100679535D01*
X174057849Y-100200077D01*
X174318104Y-99573313D01*
X174318696Y-98894664D01*
X174059535Y-98267447D01*
X173580077Y-97787151D01*
X172953313Y-97526896D01*
X172274664Y-97526304D01*
X171647447Y-97785465D01*
X171167151Y-98264923D01*
X170906896Y-98891687D01*
X170906304Y-99570336D01*
X168818106Y-99570336D01*
X168818696Y-98894664D01*
X168559535Y-98267447D01*
X168080077Y-97787151D01*
X167453313Y-97526896D01*
X166774664Y-97526304D01*
X166147447Y-97785465D01*
X165667151Y-98264923D01*
X165406896Y-98891687D01*
X165406304Y-99570336D01*
X159395606Y-99570336D01*
X159396196Y-98894664D01*
X159137035Y-98267447D01*
X158657577Y-97787151D01*
X158030813Y-97526896D01*
X157352164Y-97526304D01*
X156724947Y-97785465D01*
X156244651Y-98264923D01*
X155984396Y-98891687D01*
X155983804Y-99570336D01*
X153895606Y-99570336D01*
X153896196Y-98894664D01*
X153637035Y-98267447D01*
X153157577Y-97787151D01*
X152530813Y-97526896D01*
X151852164Y-97526304D01*
X151224947Y-97785465D01*
X150744651Y-98264923D01*
X150484396Y-98891687D01*
X150483804Y-99570336D01*
X147421900Y-99570336D01*
X147421900Y-94929748D01*
X150643752Y-94929748D01*
X150948489Y-95667267D01*
X151512265Y-96232028D01*
X152249251Y-96538051D01*
X153047248Y-96538748D01*
X153784767Y-96234011D01*
X154349528Y-95670235D01*
X154655551Y-94933249D01*
X154655554Y-94929748D01*
X165566252Y-94929748D01*
X165870989Y-95667267D01*
X166434765Y-96232028D01*
X167171751Y-96538051D01*
X167969748Y-96538748D01*
X168707267Y-96234011D01*
X169272028Y-95670235D01*
X169578051Y-94933249D01*
X169578748Y-94135252D01*
X169274011Y-93397733D01*
X168710235Y-92832972D01*
X167973249Y-92526949D01*
X167175252Y-92526252D01*
X166437733Y-92830989D01*
X165872972Y-93394765D01*
X165566949Y-94131751D01*
X165566252Y-94929748D01*
X154655554Y-94929748D01*
X154656248Y-94135252D01*
X154351511Y-93397733D01*
X153787735Y-92832972D01*
X153050749Y-92526949D01*
X152252752Y-92526252D01*
X151515233Y-92830989D01*
X150950472Y-93394765D01*
X150644449Y-94131751D01*
X150643752Y-94929748D01*
X147421900Y-94929748D01*
X147421900Y-91553400D01*
X148272500Y-91553400D01*
X148437398Y-91520600D01*
X148577192Y-91427192D01*
X148670600Y-91287398D01*
X148703400Y-91122500D01*
X148703400Y-79870984D01*
X149720984Y-78853400D01*
X154444016Y-78853400D01*
X155461600Y-79870984D01*
M02*
